<svg width="16" height="21" viewBox="0 0 16 21" fill="none" xmlns="http://www.w3.org/2000/svg">
<path d="M0.667969 20.1665C0.667969 18.2216 1.44059 16.3563 2.81585 14.9811C4.19112 13.6058 6.05638 12.8332 8.0013 12.8332C9.94622 12.8332 11.8115 13.6058 13.1868 14.9811C14.562 16.3563 15.3346 18.2216 15.3346 20.1665H13.5013C13.5013 18.7078 12.9218 17.3089 11.8904 16.2774C10.8589 15.246 9.45999 14.6665 8.0013 14.6665C6.54261 14.6665 5.14366 15.246 4.11221 16.2774C3.08076 17.3089 2.5013 18.7078 2.5013 20.1665H0.667969ZM8.0013 11.9165C4.96255 11.9165 2.5013 9.45525 2.5013 6.4165C2.5013 3.37775 4.96255 0.916504 8.0013 0.916504C11.0401 0.916504 13.5013 3.37775 13.5013 6.4165C13.5013 9.45525 11.0401 11.9165 8.0013 11.9165ZM8.0013 10.0832C10.0271 10.0832 11.668 8.44234 11.668 6.4165C11.668 4.39067 10.0271 2.74984 8.0013 2.74984C5.97547 2.74984 4.33463 4.39067 4.33463 6.4165C4.33463 8.44234 5.97547 10.0832 8.0013 10.0832Z" fill="#F4683F"/>
</svg>
